<svg width="190" height="41" viewBox="0 0 190 41" fill="none" xmlns="http://www.w3.org/2000/svg">
<g clip-path="url(#clip0_5516_110216)">
<g filter="url(#filter0_d_5516_110216)">
<path fill-rule="evenodd" clip-rule="evenodd" d="M0 5.52173C0 2.7603 2.23858 0.521729 5 0.521729H185C187.761 0.521729 190 2.7603 190 5.52173V36C190 38.7614 187.761 41 185 41H5C2.23858 41 0 38.7614 0 36V5.52173Z" fill="#00C3FF"/>
</g>
</g>
<path d="M27.779 20.6508C27.779 21.4988 27.6377 22.2775 27.355 22.9868C27.0723 23.6961 26.675 24.3068 26.163 24.8188C25.651 25.3308 25.035 25.7281 24.315 26.0108C23.595 26.2935 22.795 26.4348 21.915 26.4348H17.507V14.8668H21.915C22.795 14.8668 23.595 15.0108 24.315 15.2988C25.035 15.5815 25.651 15.9788 26.163 16.4908C26.675 16.9975 27.0723 17.6055 27.355 18.3148C27.6377 19.0241 27.779 19.8028 27.779 20.6508ZM25.571 20.6508C25.571 20.0161 25.4857 19.4481 25.315 18.9468C25.1497 18.4401 24.907 18.0135 24.587 17.6668C24.2723 17.3148 23.8883 17.0455 23.435 16.8588C22.987 16.6721 22.4803 16.5788 21.915 16.5788H19.667V24.7228H21.915C22.4803 24.7228 22.987 24.6295 23.435 24.4428C23.8883 24.2561 24.2723 23.9895 24.587 23.6428C24.907 23.2908 25.1497 22.8641 25.315 22.3628C25.4857 21.8561 25.571 21.2855 25.571 20.6508ZM40.7109 20.6508C40.7109 21.4988 40.5695 22.2855 40.2869 23.0108C40.0095 23.7308 39.6149 24.3548 39.1029 24.8828C38.5909 25.4108 37.9749 25.8241 37.2549 26.1228C36.5349 26.4161 35.7349 26.5628 34.8549 26.5628C33.9802 26.5628 33.1829 26.4161 32.4629 26.1228C31.7429 25.8241 31.1242 25.4108 30.6069 24.8828C30.0949 24.3548 29.6975 23.7308 29.4149 23.0108C29.1322 22.2855 28.9909 21.4988 28.9909 20.6508C28.9909 19.8028 29.1322 19.0188 29.4149 18.2988C29.6975 17.5735 30.0949 16.9468 30.6069 16.4188C31.1242 15.8908 31.7429 15.4801 32.4629 15.1868C33.1829 14.8881 33.9802 14.7388 34.8549 14.7388C35.4415 14.7388 35.9935 14.8081 36.5109 14.9468C37.0282 15.0801 37.5029 15.2721 37.9349 15.5228C38.3669 15.7681 38.7535 16.0695 39.0949 16.4268C39.4415 16.7788 39.7349 17.1735 39.9749 17.6108C40.2149 18.0481 40.3962 18.5228 40.5189 19.0348C40.6469 19.5468 40.7109 20.0855 40.7109 20.6508ZM38.5109 20.6508C38.5109 20.0161 38.4255 19.4481 38.2549 18.9468C38.0842 18.4401 37.8415 18.0108 37.5269 17.6588C37.2122 17.3068 36.8282 17.0375 36.3749 16.8508C35.9269 16.6641 35.4202 16.5708 34.8549 16.5708C34.2895 16.5708 33.7802 16.6641 33.3269 16.8508C32.8789 17.0375 32.4949 17.3068 32.1749 17.6588C31.8602 18.0108 31.6175 18.4401 31.4469 18.9468C31.2762 19.4481 31.1909 20.0161 31.1909 20.6508C31.1909 21.2855 31.2762 21.8561 31.4469 22.3628C31.6175 22.8641 31.8602 23.2908 32.1749 23.6428C32.4949 23.9895 32.8789 24.2561 33.3269 24.4428C33.7802 24.6295 34.2895 24.7228 34.8549 24.7228C35.4202 24.7228 35.9269 24.6295 36.3749 24.4428C36.8282 24.2561 37.2122 23.9895 37.5269 23.6428C37.8415 23.2908 38.0842 22.8641 38.2549 22.3628C38.4255 21.8561 38.5109 21.2855 38.5109 20.6508ZM57.7584 14.8668L54.1664 26.4348H52.2224L49.6944 18.5308C49.625 18.3388 49.561 18.1041 49.5024 17.8268C49.4704 17.9601 49.4384 18.0855 49.4064 18.2028C49.3744 18.3201 49.3397 18.4295 49.3024 18.5308L46.7504 26.4348H44.7984L41.2144 14.8668H43.0144C43.201 14.8668 43.3557 14.9121 43.4784 15.0028C43.6064 15.0881 43.6917 15.2055 43.7344 15.3548L45.7024 22.2748C45.745 22.4455 45.785 22.6321 45.8224 22.8348C45.865 23.0321 45.9077 23.2401 45.9504 23.4588C45.993 23.2348 46.0384 23.0241 46.0864 22.8268C46.1397 22.6295 46.1957 22.4455 46.2544 22.2748L48.5264 15.3548C48.569 15.2321 48.6517 15.1201 48.7744 15.0188C48.9024 14.9175 49.057 14.8668 49.2384 14.8668H49.8704C50.057 14.8668 50.209 14.9121 50.3264 15.0028C50.4437 15.0935 50.5317 15.2108 50.5904 15.3548L52.8544 22.2748C52.9664 22.6055 53.0677 22.9868 53.1584 23.4188C53.2277 22.9975 53.305 22.6161 53.3904 22.2748L55.3584 15.3548C55.3904 15.2215 55.4704 15.1068 55.5984 15.0108C55.7317 14.9148 55.889 14.8668 56.0704 14.8668H57.7584ZM68.9309 14.8668V26.4348H67.8269C67.6562 26.4348 67.5122 26.4081 67.3949 26.3548C67.2829 26.2961 67.1735 26.2001 67.0669 26.0668L61.0269 18.3548C61.0589 18.7068 61.0749 19.0321 61.0749 19.3308V26.4348H59.1789V14.8668H60.3069C60.3975 14.8668 60.4749 14.8721 60.5389 14.8828C60.6082 14.8881 60.6669 14.9041 60.7149 14.9308C60.7682 14.9521 60.8189 14.9868 60.8669 15.0348C60.9149 15.0775 60.9682 15.1361 61.0269 15.2108L67.0909 22.9548C67.0749 22.7681 67.0615 22.5841 67.0509 22.4028C67.0402 22.2215 67.0349 22.0535 67.0349 21.8988V14.8668H68.9309ZM78.283 24.6588V26.4348H71.507V14.8668H73.659V24.6588H78.283ZM90.4453 20.6508C90.4453 21.4988 90.3039 22.2855 90.0213 23.0108C89.7439 23.7308 89.3493 24.3548 88.8373 24.8828C88.3253 25.4108 87.7093 25.8241 86.9893 26.1228C86.2693 26.4161 85.4693 26.5628 84.5893 26.5628C83.7146 26.5628 82.9173 26.4161 82.1973 26.1228C81.4773 25.8241 80.8586 25.4108 80.3413 24.8828C79.8293 24.3548 79.4319 23.7308 79.1493 23.0108C78.8666 22.2855 78.7253 21.4988 78.7253 20.6508C78.7253 19.8028 78.8666 19.0188 79.1493 18.2988C79.4319 17.5735 79.8293 16.9468 80.3413 16.4188C80.8586 15.8908 81.4773 15.4801 82.1973 15.1868C82.9173 14.8881 83.7146 14.7388 84.5893 14.7388C85.1759 14.7388 85.7279 14.8081 86.2453 14.9468C86.7626 15.0801 87.2373 15.2721 87.6693 15.5228C88.1013 15.7681 88.4879 16.0695 88.8293 16.4268C89.1759 16.7788 89.4693 17.1735 89.7093 17.6108C89.9493 18.0481 90.1306 18.5228 90.2533 19.0348C90.3813 19.5468 90.4453 20.0855 90.4453 20.6508ZM88.2453 20.6508C88.2453 20.0161 88.1599 19.4481 87.9893 18.9468C87.8186 18.4401 87.5759 18.0108 87.2613 17.6588C86.9466 17.3068 86.5626 17.0375 86.1093 16.8508C85.6613 16.6641 85.1546 16.5708 84.5893 16.5708C84.0239 16.5708 83.5146 16.6641 83.0613 16.8508C82.6133 17.0375 82.2293 17.3068 81.9093 17.6588C81.5946 18.0108 81.3519 18.4401 81.1813 18.9468C81.0106 19.4481 80.9253 20.0161 80.9253 20.6508C80.9253 21.2855 81.0106 21.8561 81.1813 22.3628C81.3519 22.8641 81.5946 23.2908 81.9093 23.6428C82.2293 23.9895 82.6133 24.2561 83.0613 24.4428C83.5146 24.6295 84.0239 24.7228 84.5893 24.7228C85.1546 24.7228 85.6613 24.6295 86.1093 24.4428C86.5626 24.2561 86.9466 23.9895 87.2613 23.6428C87.5759 23.2908 87.8186 22.8641 87.9893 22.3628C88.1599 21.8561 88.2453 21.2855 88.2453 20.6508ZM98.0878 22.0668L96.6798 18.2188C96.6104 18.0481 96.5384 17.8455 96.4638 17.6108C96.3891 17.3761 96.3144 17.1228 96.2398 16.8508C96.1704 17.1228 96.0984 17.3788 96.0238 17.6188C95.9491 17.8535 95.8771 18.0588 95.8078 18.2348L94.4078 22.0668H98.0878ZM101.888 26.4348H100.224C100.037 26.4348 99.8851 26.3895 99.7678 26.2988C99.6504 26.2028 99.5624 26.0855 99.5038 25.9468L98.6398 23.5868H93.8478L92.9838 25.9468C92.9411 26.0695 92.8584 26.1815 92.7358 26.2828C92.6131 26.3841 92.4611 26.4348 92.2798 26.4348H90.5998L95.1518 14.8668H97.3438L101.888 26.4348ZM113.357 20.6508C113.357 21.4988 113.216 22.2775 112.933 22.9868C112.65 23.6961 112.253 24.3068 111.741 24.8188C111.229 25.3308 110.613 25.7281 109.893 26.0108C109.173 26.2935 108.373 26.4348 107.493 26.4348H103.085V14.8668H107.493C108.373 14.8668 109.173 15.0108 109.893 15.2988C110.613 15.5815 111.229 15.9788 111.741 16.4908C112.253 16.9975 112.65 17.6055 112.933 18.3148C113.216 19.0241 113.357 19.8028 113.357 20.6508ZM111.149 20.6508C111.149 20.0161 111.064 19.4481 110.893 18.9468C110.728 18.4401 110.485 18.0135 110.165 17.6668C109.85 17.3148 109.466 17.0455 109.013 16.8588C108.565 16.6721 108.058 16.5788 107.493 16.5788H105.245V24.7228H107.493C108.058 24.7228 108.565 24.6295 109.013 24.4428C109.466 24.2561 109.85 23.9895 110.165 23.6428C110.485 23.2908 110.728 22.8641 110.893 22.3628C111.064 21.8561 111.149 21.2855 111.149 20.6508ZM122.908 20.6828C123.302 20.6828 123.646 20.6348 123.94 20.5388C124.233 20.4375 124.476 20.2961 124.668 20.1148C124.865 19.9281 125.012 19.7041 125.108 19.4428C125.204 19.1761 125.252 18.8801 125.252 18.5548C125.252 18.2455 125.204 17.9655 125.108 17.7148C125.012 17.4641 124.868 17.2508 124.676 17.0748C124.484 16.8988 124.241 16.7655 123.948 16.6748C123.654 16.5788 123.308 16.5308 122.908 16.5308H121.3V20.6828H122.908ZM122.908 14.8668C123.681 14.8668 124.35 14.9575 124.916 15.1388C125.481 15.3201 125.948 15.5735 126.316 15.8988C126.684 16.2241 126.956 16.6135 127.132 17.0668C127.313 17.5201 127.404 18.0161 127.404 18.5548C127.404 19.1148 127.31 19.6295 127.124 20.0988C126.937 20.5628 126.657 20.9628 126.284 21.2988C125.91 21.6348 125.441 21.8961 124.876 22.0828C124.316 22.2695 123.66 22.3628 122.908 22.3628H121.3V26.4348H119.148V14.8668H122.908ZM139.326 20.6508C139.326 21.4988 139.185 22.2775 138.902 22.9868C138.619 23.6961 138.222 24.3068 137.71 24.8188C137.198 25.3308 136.582 25.7281 135.862 26.0108C135.142 26.2935 134.342 26.4348 133.462 26.4348H129.054V14.8668H133.462C134.342 14.8668 135.142 15.0108 135.862 15.2988C136.582 15.5815 137.198 15.9788 137.71 16.4908C138.222 16.9975 138.619 17.6055 138.902 18.3148C139.185 19.0241 139.326 19.8028 139.326 20.6508ZM137.118 20.6508C137.118 20.0161 137.033 19.4481 136.862 18.9468C136.697 18.4401 136.454 18.0135 136.134 17.6668C135.819 17.3148 135.435 17.0455 134.982 16.8588C134.534 16.6721 134.027 16.5788 133.462 16.5788H131.214V24.7228H133.462C134.027 24.7228 134.534 24.6295 134.982 24.4428C135.435 24.2561 135.819 23.9895 136.134 23.6428C136.454 23.2908 136.697 22.8641 136.862 22.3628C137.033 21.8561 137.118 21.2855 137.118 20.6508ZM143.386 16.5788V20.0028H147.722V21.7228H143.386V26.4348H141.226V14.8668H148.522V16.5788H143.386Z" fill="white"/>
<path d="M168.523 22.6195C168.311 22.6195 168.108 22.5414 167.963 22.4039L162.542 17.2925C162.072 16.8501 162.421 16.1141 163.101 16.1141H165.941V10.7703C165.941 10.13 166.52 9.60864 167.232 9.60864H169.813C170.525 9.60864 171.104 10.13 171.104 10.7703V16.1141H173.944C174.624 16.1141 174.973 16.8501 174.503 17.2925L169.082 22.4039C168.937 22.5414 168.734 22.6195 168.523 22.6195Z" fill="white"/>
<path d="M179.106 28.1425H157.938C156.941 28.1425 156.131 27.7673 156.131 27.3061V27.0671C156.131 26.6059 156.941 26.2307 157.938 26.2307H179.106C180.103 26.2307 180.913 26.6059 180.913 27.0671V27.3061C180.913 27.7673 180.103 28.1425 179.106 28.1425Z" fill="white"/>
<defs>
<filter id="filter0_d_5516_110216" x="-20" y="-9.47827" width="230" height="80.4783" filterUnits="userSpaceOnUse" color-interpolation-filters="sRGB">
<feFlood flood-opacity="0" result="BackgroundImageFix"/>
<feColorMatrix in="SourceAlpha" type="matrix" values="0 0 0 0 0 0 0 0 0 0 0 0 0 0 0 0 0 0 127 0" result="hardAlpha"/>
<feOffset dy="10"/>
<feGaussianBlur stdDeviation="10"/>
<feColorMatrix type="matrix" values="0 0 0 0 0 0 0 0 0 0 0 0 0 0 0 0 0 0 0.2 0"/>
<feBlend mode="normal" in2="BackgroundImageFix" result="effect1_dropShadow_5516_110216"/>
<feBlend mode="normal" in="SourceGraphic" in2="effect1_dropShadow_5516_110216" result="shape"/>
</filter>
<clipPath id="clip0_5516_110216">
<rect width="190" height="40.4783" fill="white" transform="translate(0 0.521729)"/>
</clipPath>
</defs>
</svg>
